<!DOCTYPE svg PUBLIC "-//W3C//DTD SVG 1.1//EN" "http://www.w3.org/Graphics/SVG/1.1/DTD/svg11.dtd">
<!-- Uploaded to: SVG Repo, www.svgrepo.com, Transformed by: SVG Repo Mixer Tools -->
<svg fill="#ffffff" width="800px" height="800px" viewBox="0 0 24.00 24.00" role="img" xmlns="http://www.w3.org/2000/svg" stroke="#ffffff">
<g id="SVGRepo_bgCarrier" stroke-width="0"/>
<g id="SVGRepo_tracerCarrier" stroke-linecap="round" stroke-linejoin="round"/>
<g id="SVGRepo_iconCarrier">
<path d="M12.17 1.272a.732.732 0 0 0-.718.732v13.914a.732.732 0 0 0 .732.732.732.732 0 0 0 .732-.732V2.004a.732.732 0 0 0-.745-.732zM23.246 5.44a.734.734 0 0 0-.277.063l-6.282 2.804a.733.733 0 0 0 0 1.336l6.282 2.813a.738.738 0 0 0 .3.065.732.732 0 0 0 .297-1.4L18.78 8.976l4.786-2.137a.734.734 0 0 0 .37-.966.734.734 0 0 0-.69-.433zm-22.5 5.032a.732.732 0 0 0-.722.915c1.736 6.677 7.775 11.341 14.683 11.341a.732.732 0 0 0 0-1.464A13.706 13.706 0 0 1 1.44 11.02a.732.732 0 0 0-.694-.547z"/>
</g>
</svg>